<svg width="1436" height="1355" viewBox="0 0 1436 1355" fill="none" xmlns="http://www.w3.org/2000/svg">
<path d="M1131.33 1334.18C1113.51 1321.22 1092.44 1305.02 1082.72 1298.53C1063.27 1285.57 975.77 1222.37 933.638 1191.58C919.054 1180.24 904.47 1172.14 901.229 1172.14C894.747 1172.14 860.718 1206.17 860.718 1214.27C860.718 1217.51 865.579 1225.61 872.061 1233.72C880.163 1243.44 883.404 1258.02 883.404 1274.23C883.404 1306.64 875.302 1309.88 812.105 1314.74C763.491 1317.98 761.871 1316.36 739.184 1301.77C716.498 1285.57 716.498 1285.57 698.673 1298.53C674.366 1316.36 594.964 1316.36 577.139 1298.53C562.555 1283.95 562.555 1275.85 573.898 1248.3C578.76 1236.96 583.621 1223.99 583.621 1220.75C583.621 1209.41 547.971 1177 539.869 1180.24C536.628 1181.86 479.912 1219.13 416.715 1264.5C306.524 1342.29 277.356 1358.49 287.079 1335.8C295.181 1313.12 335.692 1185.1 335.692 1178.62C335.692 1177 314.626 1173.76 290.319 1172.14C238.465 1168.9 225.501 1162.42 207.676 1121.9C197.954 1099.22 197.954 1095.98 206.056 1078.15C219.02 1045.74 236.845 1039.26 306.524 1034.4C340.553 1032.78 372.962 1027.92 377.824 1026.3C389.167 1019.82 445.883 848.049 437.78 838.326C434.54 835.085 379.444 792.953 314.626 745.96C180.129 648.733 116.931 603.361 48.8723 551.506L0.258789 515.856L257.91 514.236C447.503 512.616 517.183 510.995 523.664 506.134C535.007 496.411 530.146 468.863 504.219 420.25C479.912 373.257 457.226 297.096 452.365 248.482C449.124 212.832 458.846 139.912 470.189 125.328C476.671 117.226 479.912 115.605 494.496 122.087C526.905 135.051 580.38 204.73 603.066 259.825C607.928 272.789 616.03 282.512 619.271 282.512C625.753 280.891 646.819 220.935 692.191 76.7146C705.155 36.2034 718.118 2.17392 719.739 0.553469C721.359 -1.06698 731.082 15.1375 740.805 37.8238C748.907 60.5101 763.491 86.4373 773.214 97.7804C802.382 131.81 812.105 160.978 821.827 256.585C825.068 290.614 859.098 404.045 889.886 486.688C901.229 515.856 901.229 515.856 1168.6 515.856C1316.06 515.856 1435.98 517.477 1435.98 520.718C1435.98 522.338 1390.61 557.988 1337.13 598.499C1056.79 805.917 1009.8 841.567 1009.8 849.669C1009.8 869.114 1058.41 1006.85 1063.27 1006.85C1066.52 1006.85 1097.3 993.889 1129.71 977.685C1196.15 945.276 1220.46 942.035 1256.11 959.86C1291.76 977.685 1332.27 1031.16 1332.27 1061.95C1332.27 1073.29 1312.82 1073.29 1272.31 1058.71C1238.28 1047.36 1238.28 1047.36 1223.7 1058.71C1201.01 1074.91 1189.67 1097.6 1197.77 1108.94C1201.01 1113.8 1223.7 1125.15 1246.39 1133.25C1269.07 1141.35 1290.14 1151.07 1291.76 1155.93C1295 1168.9 1241.52 1196.45 1186.43 1209.41C1150.78 1217.51 1132.95 1223.99 1132.95 1228.85C1132.95 1233.72 1141.06 1261.26 1150.78 1292.05C1160.5 1322.84 1166.98 1350.39 1166.98 1353.63C1166.98 1356.87 1147.54 1345.53 1131.33 1334.18Z" fill="#FEFDFD"/>
<path d="M1131.33 1334.18C1113.51 1321.22 1092.44 1305.02 1082.72 1298.53C1063.27 1285.57 975.77 1222.37 933.638 1191.58C919.054 1180.24 904.47 1172.14 901.229 1172.14C894.747 1172.14 860.718 1206.17 860.718 1214.27C860.718 1217.51 865.579 1225.61 872.061 1233.72C880.163 1243.44 883.404 1258.02 883.404 1274.23C883.404 1306.64 875.302 1309.88 812.105 1314.74C763.491 1317.98 761.871 1316.36 739.184 1301.77C716.498 1285.57 716.498 1285.57 698.673 1298.53C674.366 1316.36 594.964 1316.36 577.139 1298.53C562.555 1283.95 562.555 1275.85 573.898 1248.3C578.76 1236.96 583.621 1223.99 583.621 1220.75C583.621 1209.41 547.971 1177 539.869 1180.24C536.628 1181.86 479.912 1219.13 416.715 1264.5C306.524 1342.29 277.356 1358.49 287.079 1335.8C295.181 1313.12 335.692 1185.1 335.692 1178.62C335.692 1177 314.626 1173.76 290.319 1172.14C238.465 1168.9 225.501 1162.42 207.676 1121.9C197.954 1099.22 197.954 1095.98 206.056 1078.15C219.02 1045.74 236.845 1039.26 306.524 1034.4C340.553 1032.78 372.962 1027.92 377.824 1026.3C389.167 1019.82 445.883 848.049 437.78 838.326C434.54 835.085 379.444 792.953 314.626 745.96C180.129 648.733 116.931 603.361 48.8723 551.506L0.258789 515.856L257.91 514.236C447.503 512.616 517.183 510.995 523.664 506.134C535.007 496.411 530.146 468.863 504.219 420.25C479.912 373.257 457.226 297.096 452.365 248.482C449.124 212.832 458.846 139.912 470.189 125.328C476.671 117.226 479.912 115.605 494.496 122.087C526.905 135.051 580.38 204.73 603.066 259.825C607.928 272.789 616.03 282.512 619.271 282.512C625.753 280.891 646.819 220.935 692.191 76.7146C705.155 36.2034 718.118 2.17392 719.739 0.553469C721.359 -1.06698 731.082 15.1375 740.805 37.8238C748.907 60.5101 763.491 86.4373 773.214 97.7804C802.382 131.81 812.105 160.978 821.827 256.585C825.068 290.614 859.098 404.045 889.886 486.688C901.229 515.856 901.229 515.856 1168.6 515.856C1316.06 515.856 1435.98 517.477 1435.98 520.718C1435.98 522.338 1390.61 557.988 1337.13 598.499C1056.79 805.917 1009.8 841.567 1009.8 849.669C1009.8 869.114 1058.41 1006.85 1063.27 1006.85C1066.52 1006.85 1097.3 993.889 1129.71 977.685C1196.15 945.276 1220.46 942.035 1256.11 959.86C1291.76 977.685 1332.27 1031.16 1332.27 1061.95C1332.27 1073.29 1312.82 1073.29 1272.31 1058.71C1238.28 1047.36 1238.28 1047.36 1223.7 1058.71C1201.01 1074.91 1189.67 1097.6 1197.77 1108.94C1201.01 1113.8 1223.7 1125.15 1246.39 1133.25C1269.07 1141.35 1290.14 1151.07 1291.76 1155.93C1295 1168.9 1241.52 1196.45 1186.43 1209.41C1150.78 1217.51 1132.95 1223.99 1132.95 1228.85C1132.95 1233.72 1141.06 1261.26 1150.78 1292.05C1160.5 1322.84 1166.98 1350.39 1166.98 1353.63C1166.98 1356.87 1147.54 1345.53 1131.33 1334.18ZM862.339 1295.29C867.2 1293.67 870.441 1283.95 870.441 1272.61C870.441 1222.37 792.659 1186.72 752.148 1219.13C739.184 1228.85 737.564 1235.34 737.564 1259.64C737.564 1288.81 744.046 1296.91 766.732 1301.77C784.557 1303.39 849.375 1300.15 862.339 1295.29ZM687.33 1288.81C698.673 1277.47 701.914 1230.47 690.571 1219.13C680.848 1209.41 630.614 1211.03 611.169 1220.75C577.139 1238.58 565.796 1272.61 588.482 1288.81C607.928 1301.77 674.366 1301.77 687.33 1288.81ZM862.339 1181.86C872.061 1177 873.682 1172.14 870.441 1138.11C868.82 1117.04 863.959 1086.25 860.718 1070.05C849.375 1021.44 847.754 1024.68 891.507 1026.3C915.813 1027.92 930.397 1026.3 930.397 1023.06C930.397 1008.47 889.886 966.341 865.579 953.378C839.652 938.794 839.652 938.794 787.798 948.516C724.6 959.86 659.782 961.48 622.512 950.137C598.205 942.035 593.344 942.035 577.139 950.137C557.694 959.86 536.628 990.648 536.628 1008.47C536.628 1021.44 549.592 1026.3 556.073 1014.95C567.416 995.51 570.657 1014.95 569.037 1089.5C567.416 1202.93 556.073 1196.45 719.739 1191.58C792.659 1189.96 855.857 1185.1 862.339 1181.86ZM1157.26 1152.69C1168.6 1128.39 1183.19 1095.98 1189.67 1078.15C1196.15 1061.95 1204.25 1044.12 1207.49 1040.88C1215.6 1031.16 1248.01 1031.16 1273.93 1042.5C1296.62 1052.23 1322.55 1053.85 1322.55 1047.36C1322.55 1040.88 1309.58 1021.44 1296.62 1005.23C1254.49 954.998 1218.84 951.757 1131.33 993.889C1035.73 1037.64 1016.28 1044.12 941.741 1048.98C904.47 1050.6 873.682 1053.85 873.682 1055.47C873.682 1071.67 886.645 1118.66 893.127 1123.53C896.368 1125.15 909.332 1128.39 920.675 1128.39C972.529 1128.39 1076.24 1160.8 1110.27 1186.72C1118.37 1193.2 1128.09 1198.07 1132.95 1198.07C1132.95 1194.82 1145.92 1175.38 1157.26 1152.69ZM1217.22 1181.86C1236.66 1175.38 1259.35 1165.66 1265.83 1159.17C1275.55 1149.45 1275.55 1149.45 1243.14 1136.49C1192.91 1117.04 1184.81 1118.66 1171.84 1154.31C1165.36 1170.52 1160.5 1186.72 1160.5 1188.34C1158.88 1198.07 1178.33 1194.82 1217.22 1181.86ZM450.744 1144.59C496.117 1142.97 538.248 1139.73 541.489 1136.49C544.73 1134.87 549.592 1113.8 549.592 1092.74C551.212 1052.23 551.212 1052.23 470.189 1047.36C364.86 1040.88 238.465 1048.98 227.122 1065.19C214.158 1083.01 222.261 1125.15 241.706 1141.35C257.91 1155.93 259.531 1155.93 313.006 1151.07C342.174 1151.07 405.371 1147.83 450.744 1144.59ZM766.732 932.312C779.696 927.451 797.52 924.21 805.623 924.21C828.309 924.21 844.514 916.108 876.923 886.939C928.777 841.567 949.843 783.231 949.843 690.865C949.843 640.631 948.222 629.288 933.638 601.74C915.813 566.09 868.82 512.616 829.93 488.309C787.798 460.761 787.798 460.761 799.141 397.564C818.586 274.409 807.243 152.876 771.593 117.226C758.63 104.262 753.768 107.503 735.943 141.533C711.637 191.767 701.914 253.344 705.155 361.914C708.396 470.484 713.257 459.141 663.023 467.243C627.373 472.104 622.512 460.761 606.307 340.848C594.964 251.723 536.628 149.635 488.014 131.81C473.43 126.949 466.949 159.358 466.949 224.176C466.949 306.818 489.635 384.6 530.146 449.418C551.212 481.827 551.212 499.652 531.767 525.579C504.219 562.849 486.394 609.843 471.81 698.967C460.467 760.544 478.292 820.501 520.423 865.874C585.241 933.932 680.848 961.48 766.732 932.312Z" fill="#FF0000"/>
<path d="M1064.94 1146.23C1019.57 1126.79 1017.94 1120.3 1035.77 1083.03C1050.35 1052.25 1051.97 1050.63 1073.04 1050.63C1097.35 1050.63 1139.48 1068.45 1142.72 1079.79C1145.96 1087.9 1126.51 1133.27 1113.55 1149.47C1103.83 1162.44 1098.97 1162.44 1064.94 1146.23ZM1095.73 1131.65C1095.73 1128.41 1086 1123.55 1076.28 1120.3C1053.59 1113.82 1048.73 1118.68 1069.8 1128.41C1084.38 1138.13 1095.73 1138.13 1095.73 1131.65ZM1090.87 1099.24C1090.87 1094.38 1087.62 1091.14 1082.76 1091.14C1071.42 1091.14 1066.56 1100.86 1074.66 1104.1C1087.62 1108.96 1090.87 1108.96 1090.87 1099.24ZM1105.45 1071.69C1094.11 1065.21 1089.24 1070.07 1094.11 1083.03C1097.35 1091.14 1098.97 1091.14 1107.07 1084.66C1113.55 1078.17 1113.55 1076.55 1105.45 1071.69Z" fill="#FF0000"/>
<path d="M708.38 873.981C701.898 867.499 710 859.397 722.964 859.397C729.446 859.397 734.307 862.638 732.687 867.499C729.446 875.601 713.241 880.462 708.38 873.981Z" fill="#FF0000"/>
<path d="M547.955 758.937C536.611 744.353 543.093 729.769 562.539 729.769C573.882 729.769 580.364 733.009 581.984 739.491C583.605 750.834 573.882 767.039 562.539 767.039C559.298 768.659 552.816 763.798 547.955 758.937Z" fill="#FF0000"/>
<path d="M826.695 726.526C815.352 715.183 818.593 705.46 834.797 697.358C846.14 690.876 851.002 692.497 859.104 700.599C867.206 708.701 867.206 711.942 862.345 720.044C854.243 733.008 836.418 736.249 826.695 726.526Z" fill="#FF0000"/>
</svg>
